<?xml version="1.0" encoding="UTF-8"?>
<svg xmlns="http://www.w3.org/2000/svg" xmlns:xlink="http://www.w3.org/1999/xlink" viewBox="0 0 1218.55 1073.81">
  <defs>
    <style>
      .cls-1 {
        fill: url(#linear-gradient);
      }

      .cls-1, .cls-2, .cls-3, .cls-4, .cls-5, .cls-6, .cls-7, .cls-8, .cls-9, .cls-10, .cls-11, .cls-12, .cls-13, .cls-14, .cls-15, .cls-16, .cls-17, .cls-18, .cls-19, .cls-20, .cls-21, .cls-22, .cls-23, .cls-24, .cls-25, .cls-26, .cls-27, .cls-28, .cls-29, .cls-30, .cls-31, .cls-32, .cls-33, .cls-34, .cls-35, .cls-36, .cls-37, .cls-38, .cls-39, .cls-40, .cls-41, .cls-42, .cls-43, .cls-44, .cls-45, .cls-46, .cls-47, .cls-48, .cls-49, .cls-50, .cls-51, .cls-52, .cls-53, .cls-54, .cls-55, .cls-56, .cls-57, .cls-58, .cls-59, .cls-60, .cls-61, .cls-62, .cls-63, .cls-64, .cls-65, .cls-66, .cls-67, .cls-68, .cls-69, .cls-70, .cls-71, .cls-72, .cls-73, .cls-74, .cls-75, .cls-76, .cls-77, .cls-78, .cls-79, .cls-80, .cls-81, .cls-82, .cls-83, .cls-84, .cls-85, .cls-86, .cls-87, .cls-88, .cls-89, .cls-90, .cls-91, .cls-92, .cls-93, .cls-94, .cls-95, .cls-96, .cls-97, .cls-98, .cls-99, .cls-100, .cls-101, .cls-102, .cls-103, .cls-104 {
        fill-rule: evenodd;
        stroke-width: 0px;
      }

      .cls-2 {
        fill: url(#linear-gradient-2);
      }

      .cls-3 {
        fill: #050505;
      }

      .cls-4 {
        fill: #6b0f52;
      }

      .cls-5 {
        fill: #030303;
      }

      .cls-6 {
        fill: #121212;
      }

      .cls-7 {
        fill: #080808;
      }

      .cls-8 {
        fill: #1c1c1c;
      }

      .cls-9 {
        fill: #0f0f0f;
      }

      .cls-10 {
        fill: #191919;
      }

      .cls-11 {
        fill: #0a0a0a;
      }

      .cls-12 {
        fill: #6f0f57;
      }

      .cls-13 {
        fill: #141414;
      }

      .cls-14 {
        fill: #0d0d0d;
      }

      .cls-15 {
        fill: #1e1e1e;
      }

      .cls-16 {
        fill: #171717;
      }

      .cls-17 {
        fill: #212121;
      }

      .cls-18 {
        fill: #7d1061;
      }

      .cls-19 {
        fill: #77105b;
      }

      .cls-20 {
        fill: #971574;
      }

      .cls-21 {
        fill: #8b1269;
      }

      .cls-22 {
        fill: #a51780;
      }

      .cls-23 {
        fill: #9c157b;
      }

      .cls-24 {
        fill: #b21788;
      }

      .cls-25 {
        fill: #a91683;
      }

      .cls-26 {
        fill: #c01994;
      }

      .cls-27 {
        fill: #c31a97;
      }

      .cls-28 {
        fill: #e31dae;
      }

      .cls-29 {
        fill: #da1eaa;
      }

      .cls-30 {
        fill: #c91b9c;
      }

      .cls-31 {
        fill: #cc1b9f;
      }

      .cls-32 {
        fill: #ae1787;
      }

      .cls-33 {
        fill: #d11ca3;
      }

      .cls-34 {
        fill: #d51ca5;
      }

      .cls-35 {
        fill: #e01dac;
      }

      .cls-36 {
        fill: #ffd2f2;
      }

      .cls-37 {
        fill: #ffc3ee;
      }

      .cls-38 {
        fill: #ffd6f4;
      }

      .cls-39 {
        fill: #ffa7e7;
      }

      .cls-40 {
        fill: #ffc0f0;
      }

      .cls-41 {
        fill: #ffa4e7;
      }

      .cls-42 {
        fill: #ffc8f0;
      }

      .cls-43 {
        fill: #ffb3eb;
      }

      .cls-44 {
        fill: #ffbcee;
      }

      .cls-45 {
        fill: #ffb9ec;
      }

      .cls-46 {
        fill: #fe22c4;
      }

      .cls-47 {
        fill: #ffcff2;
      }

      .cls-48 {
        fill: #fface9;
      }

      .cls-49 {
        fill: #ffb1ea;
      }

      .cls-50 {
        fill: #ffcbf2;
      }

      .cls-51 {
        fill: #e81fb4;
      }

      .cls-52 {
        fill: #ff33cb;
      }

      .cls-53 {
        fill: #ff38cc;
      }

      .cls-54 {
        fill: #ff45d1;
      }

      .cls-55 {
        fill: #ff4ed1;
      }

      .cls-56 {
        fill: #ff41cf;
      }

      .cls-57 {
        fill: #ff2ac8;
      }

      .cls-58 {
        fill: #ff3ccc;
      }

      .cls-59 {
        fill: #ffdff7;
      }

      .cls-60 {
        fill: #ec1fb6;
      }

      .cls-61 {
        fill: #ff57d5;
      }

      .cls-62 {
        fill: #ff4ad0;
      }

      .cls-63 {
        fill: #ff54d2;
      }

      .cls-64 {
        fill: #ff25c7;
      }

      .cls-65 {
        fill: #ff9ce5;
      }

      .cls-66 {
        fill: #ffeffb;
      }

      .cls-67 {
        fill: #ffdaf6;
      }

      .cls-68 {
        fill: #ffe1f6;
      }

      .cls-69 {
        fill: #ffedfa;
      }

      .cls-70 {
        fill: #fff;
      }

      .cls-71 {
        fill: #ffa0e5;
      }

      .cls-72 {
        fill: #fff3fa;
      }

      .cls-73 {
        fill: #fff7fe;
      }

      .cls-74 {
        fill: #ffe5f7;
      }

      .cls-75 {
        fill: #ffe8f9;
      }

      .cls-76 {
        fill: #ff2fca;
      }

      .cls-77 {
        fill: #ff97e3;
      }

      .cls-78 {
        fill: #ff94e3;
      }

      .cls-79 {
        fill: #ff62d6;
      }

      .cls-80 {
        fill: #ff66d7;
      }

      .cls-81 {
        fill: #ff6edb;
      }

      .cls-82 {
        fill: #ff5dd7;
      }

      .cls-83 {
        fill: #ff84df;
      }

      .cls-84 {
        fill: #ff8fe2;
      }

      .cls-85 {
        fill: #ff8cdf;
      }

      .cls-86 {
        fill: #ff86de;
      }

      .cls-87 {
        fill: #ff6ad9;
      }

      .cls-88 {
        fill: #ff76d9;
      }

      .cls-89 {
        fill: #ff73db;
      }

      .cls-90 {
        fill: #ff7bdb;
      }

      .cls-91 {
        fill: #ff7ede;
      }

      .cls-92 {
        fill: #801064;
      }

      .cls-93 {
        fill: #660e4e;
      }

      .cls-94 {
        fill: #74115a;
      }

      .cls-95 {
        fill: #bb1990;
      }

      .cls-96 {
        fill: #b7198e;
      }

      .cls-97 {
        fill: #a0157d;
      }

      .cls-98 {
        fill: #941372;
      }

      .cls-99 {
        fill: #861265;
      }

      .cls-100 {
        fill: #8e136f;
      }

      .cls-101 {
        fill: #f120ba;
      }

      .cls-102 {
        fill: #fa22c2;
      }

      .cls-103 {
        fill: #f520bc;
      }

      .cls-105 {
        isolation: isolate;
      }

      .cls-106 {
        mix-blend-mode: multiply;
        opacity: .4;
      }
    </style>
    <linearGradient id="linear-gradient" x1="302.63" y1="505.5" x2="815.44" y2="651.95" gradientUnits="userSpaceOnUse">
      <stop offset="0" stop-color="#ff1af4"/>
      <stop offset="1" stop-color="#a819ff"/>
    </linearGradient>
    <linearGradient id="linear-gradient-2" x1="303.47" y1="641.24" x2="801.04" y2="546.82" gradientUnits="userSpaceOnUse">
      <stop offset="0" stop-color="#ff1af4"/>
      <stop offset="1" stop-color="#ff2b52"/>
    </linearGradient>
  </defs>
  <g class="cls-105">
    <g id="Layer_1" data-name="Layer 1">
      <g>
        <path class="cls-1" d="M1067.41,655.02l20.33-88.07-190.75-413.62-101.34,438.95c-32.35,140.12-173.46,228.31-313.59,195.95-140.13-32.35-228.3-173.46-195.96-313.59L14.35,411.9c-66.86,289.59,115.38,581.23,404.97,648.09,289.59,66.86,581.23-115.38,648.09-404.96Z"/>
        <g class="cls-106">
          <path class="cls-70" d="M839.82,982.81l-73.27-317.38c13.07-22.23,23.01-46.77,29.1-73.15l101.44-438.95c103.3,81.15,163.39,259.13,197.59,387l-27.27,114.7c-32.19,139.43-116.5,253.95-227.59,327.79Z"/>
          <g>
            <path class="cls-73" d="M840.43,982.4l-73.38-317.84c12.82-22.01,22.59-46.25,28.6-72.28l101.26-438.18c103.38,81.28,163.46,259.52,197.44,387.67l-26.94,113.25c-32.13,139.17-116.19,253.52-226.97,327.38Z"/>
            <path class="cls-72" d="M841.04,981.98l-73.49-318.31c12.56-21.78,22.16-45.71,28.09-71.39l101.08-437.41c103.46,81.41,163.52,259.9,197.28,388.34l-26.6,111.81c-32.07,138.91-115.88,253.1-226.36,326.96Z"/>
            <path class="cls-66" d="M841.66,981.57l-73.6-318.78c12.32-21.54,21.74-45.17,27.59-70.5l100.9-436.64c103.54,81.54,163.59,260.27,197.13,389.01l-26.27,110.37c-32.01,138.65-115.57,252.67-225.75,326.55Z"/>
            <path class="cls-69" d="M842.27,981.15l-73.7-319.25c12.07-21.3,21.31-44.63,27.08-69.62l100.72-435.86c103.62,81.67,163.66,260.65,196.97,389.68l-25.93,108.92c-31.95,138.4-115.26,252.24-225.14,326.13Z"/>
            <path class="cls-75" d="M842.88,980.74l-73.81-319.72c11.82-21.06,20.89-44.09,26.58-68.74l100.54-435.09c103.7,81.8,163.72,261.04,196.81,390.37l-25.6,107.46c-31.89,138.14-114.96,251.82-224.52,325.72Z"/>
            <path class="cls-74" d="M843.5,980.32l-73.93-320.19c11.58-20.82,20.47-43.55,26.08-67.85l100.37-434.32c103.78,81.94,163.78,261.44,196.65,391.08l-25.26,105.98c-31.84,137.88-114.65,251.4-223.91,325.3Z"/>
            <path class="cls-68" d="M844.11,979.91l-74.03-320.68c11.33-20.57,20.04-43,25.57-66.95l100.19-433.55c103.86,82.08,163.85,261.84,196.49,391.79l-24.92,104.5c-31.78,137.62-114.33,250.97-223.3,324.89Z"/>
            <path class="cls-59" d="M844.72,979.5l-74.15-321.19c11.09-20.32,19.63-42.43,25.08-66.03l100.01-432.78c103.95,82.21,163.92,262.24,196.33,392.5l-24.58,103.03c-31.71,137.36-114.02,250.55-222.68,324.48Z"/>
            <path class="cls-67" d="M845.34,979.09l-74.27-321.7c10.85-20.07,19.22-41.87,24.58-65.1l99.83-432.01c104.03,82.35,163.99,262.64,196.16,393.2l-24.23,101.55c-31.66,137.11-113.71,250.12-222.07,324.06Z"/>
            <path class="cls-38" d="M845.95,978.67l-74.38-322.2c10.6-19.81,18.8-41.3,24.08-64.18l99.66-431.24c104.11,82.48,164.06,263.03,195.99,393.91l-23.89,100.07c-31.6,136.85-113.41,249.7-221.46,323.65Z"/>
            <path class="cls-36" d="M846.56,978.26l-74.5-322.71c10.37-19.56,18.39-40.73,23.59-63.26l99.48-430.47c104.2,82.62,164.13,263.46,195.82,394.66l-23.54,98.56c-31.54,136.59-113.1,249.28-220.85,323.23Z"/>
            <path class="cls-47" d="M847.17,977.84l-74.62-323.22c10.13-19.3,17.98-40.16,23.1-62.33l99.3-429.7c104.29,82.77,164.2,263.87,195.65,395.4l-23.19,97.04c-31.47,136.33-112.78,248.86-220.23,322.82Z"/>
            <path class="cls-50" d="M847.78,977.43l-74.74-323.74c9.89-19.04,17.57-39.59,22.6-61.4l99.12-428.93c104.37,82.91,164.27,264.29,195.48,396.15l-22.85,95.52c-31.42,136.08-112.47,248.45-219.62,322.41Z"/>
            <path class="cls-42" d="M848.4,977.02l-74.86-324.29c9.65-18.77,17.16-38.99,22.11-60.44l98.95-428.17c104.46,83.06,164.35,264.72,195.3,396.9l-22.49,94.01c-31.36,135.82-112.16,248.02-219.01,321.99Z"/>
            <path class="cls-37" d="M849.01,976.59l-74.99-324.83c9.42-18.5,16.77-38.4,21.63-59.48l98.77-427.39c104.55,83.19,164.42,265.13,195.14,397.64l-22.14,92.5c-31.29,135.56-111.86,247.59-218.4,321.57Z"/>
            <path class="cls-40" d="M1088.99,563.17l.21.89-21.79,90.96c-31.24,135.3-111.55,247.16-217.79,321.13l-75.12-325.36c9.19-18.22,16.37-37.8,21.15-58.51l98.59-426.63c104.4,83.15,164.17,265.04,194.75,397.52Z"/>
            <path class="cls-44" d="M1088.32,563.33l.52,2.27-21.44,89.43c-31.18,135.04-111.25,246.72-217.18,320.7l-75.24-325.89c8.95-17.95,15.96-37.2,20.66-57.55l98.42-425.86c104.13,83.01,163.73,264.67,194.26,396.91Z"/>
            <path class="cls-45" d="M1087.65,563.48l.84,3.64-21.08,87.9c-31.12,134.78-110.94,246.28-216.57,320.27l-75.36-326.42c8.72-17.67,15.55-36.6,20.17-56.59l98.23-425.09c103.86,82.87,163.29,264.29,193.77,396.29Z"/>
            <path class="cls-43" d="M1086.97,563.64l1.16,5.02-20.73,86.36c-31.06,134.52-110.63,245.85-215.96,319.84l-75.49-326.96c8.49-17.39,15.16-36,19.69-55.62l98.06-424.33c103.58,82.73,162.85,263.92,193.26,395.69Z"/>
            <path class="cls-49" d="M1086.3,563.8l1.47,6.4-20.37,84.83c-31,134.26-110.33,245.42-215.35,319.4l-75.62-327.53c8.26-17.11,14.77-35.36,19.21-54.61l97.88-423.56c103.31,82.59,162.4,263.56,192.77,395.08Z"/>
            <path class="cls-48" d="M1085.63,563.95l1.8,7.78-20.02,83.29c-30.94,134-110.02,244.98-214.74,318.97l-75.75-328.11c8.03-16.82,14.38-34.73,18.73-53.61l97.7-422.8c103.04,82.45,161.96,263.19,192.28,394.47Z"/>
            <path class="cls-39" d="M1084.95,564.1l2.12,9.16-19.67,81.76c-30.88,133.74-109.72,244.55-214.13,318.54l-75.88-328.67c7.81-16.53,13.99-34.11,18.26-52.6l97.53-422.03c102.76,82.3,161.52,262.8,191.78,393.85Z"/>
            <path class="cls-41" d="M1084.28,564.26l2.43,10.54-19.31,80.22c-30.82,133.48-109.41,244.12-213.53,318.1l-76.01-329.25c7.58-16.23,13.6-33.47,17.78-51.59l97.35-421.26c102.49,82.17,161.08,262.44,191.28,393.24Z"/>
            <path class="cls-71" d="M1083.61,564.42l2.75,11.92-18.96,78.69c-30.76,133.22-109.11,243.69-212.92,317.67l-76.14-329.82c7.36-15.94,13.21-32.85,17.31-50.59l97.17-420.5c102.22,82.03,160.65,262.06,190.79,392.63Z"/>
            <path class="cls-65" d="M1082.94,564.57l3.07,13.3-18.6,77.16c-30.7,132.96-108.8,243.26-212.31,317.24l-76.28-330.41c7.14-15.64,12.83-32.21,16.83-49.57l97-419.74c101.95,81.89,160.2,261.69,190.29,392.02Z"/>
            <path class="cls-77" d="M1082.27,564.72l3.39,14.68-18.25,75.62c-30.64,132.7-108.49,242.83-211.7,316.81l-76.42-331.03c6.92-15.33,12.45-31.54,16.37-48.52l96.82-418.97c101.67,81.75,159.76,261.32,189.8,391.41Z"/>
            <path class="cls-78" d="M1081.59,564.88l3.71,16.06-17.9,74.08c-30.58,132.44-108.19,242.4-211.09,316.37l-76.56-331.64c6.7-15.02,12.07-30.88,15.9-47.47l96.65-418.21c101.39,81.6,159.32,260.95,189.3,390.8Z"/>
            <path class="cls-84" d="M1080.92,565.04l4.02,17.43-17.54,72.55c-30.52,132.18-107.88,241.97-210.49,315.94l-76.71-332.27c6.48-14.71,11.69-30.21,15.43-46.42l96.47-417.45c101.12,81.47,158.87,260.58,188.8,390.2Z"/>
            <path class="cls-85" d="M1080.25,565.19l4.34,18.81-17.18,71.02c-30.46,131.92-107.57,241.55-209.88,315.51l-76.85-332.88c6.27-14.4,11.32-29.55,14.97-45.37l96.29-416.67c100.85,81.33,158.44,260.2,188.31,389.58Z"/>
            <path class="cls-86" d="M1079.57,565.35l4.66,20.2-16.83,69.48c-30.4,131.66-107.26,241.12-209.27,315.07l-76.99-333.5c6.06-14.08,10.94-28.88,14.5-44.31l96.12-415.91c100.58,81.18,157.99,259.84,187.81,388.98Z"/>
            <path class="cls-83" d="M1078.9,565.5l4.98,21.57-16.47,67.95c-30.34,131.4-106.96,240.69-208.66,314.65l-77.15-334.16c5.84-13.75,10.58-28.19,14.05-43.23l95.94-415.15c100.3,81.05,157.55,259.46,187.32,388.37Z"/>
            <path class="cls-91" d="M1078.23,565.66l5.3,22.95-16.12,66.42c-30.28,131.14-106.65,240.26-208.05,314.21l-77.3-334.82c5.63-13.43,10.22-27.49,13.59-42.13l95.76-414.38c100.02,80.91,157.11,259.09,186.82,387.76Z"/>
            <path class="cls-90" d="M1077.56,565.82l5.61,24.32-15.77,64.88c-30.22,130.88-106.35,239.82-207.45,313.75l-77.45-335.46c5.42-13.1,9.85-26.79,13.14-41.03l95.59-413.62c99.75,80.77,156.67,258.71,186.32,387.15Z"/>
            <path class="cls-88" d="M1076.88,565.97l5.94,25.71-15.41,63.35c-30.16,130.61-106.05,239.38-206.84,313.31l-77.6-336.11c5.21-12.77,9.49-26.09,12.68-39.93l104.61-453.35c99.48,80.63,147.03,298.84,176.62,427.04Z"/>
            <path class="cls-89" d="M1076.21,566.12l6.26,27.09-15.06,61.81c-30.1,130.35-105.74,238.93-206.24,312.85l-77.75-336.76c5.01-12.43,9.13-25.39,12.23-38.84l104.44-452.59c99.2,80.5,146.58,298.47,176.12,426.43Z"/>
            <path class="cls-81" d="M1075.54,566.28l6.57,28.47-14.7,60.28c-30.03,130.08-105.44,238.49-205.63,312.4l-77.9-337.42c4.81-12.09,8.77-24.68,11.78-37.72l104.26-451.83c98.93,80.35,146.14,298.11,175.63,425.82Z"/>
            <path class="cls-87" d="M1074.87,566.43l6.89,29.85-14.35,58.74c-29.97,129.82-105.14,238.04-205.03,311.95l-78.06-338.12c4.6-11.73,8.42-23.94,11.33-36.57l104.09-451.06c98.65,80.21,145.7,297.73,175.13,425.21Z"/>
            <path class="cls-80" d="M1074.19,566.59l7.21,31.23-14,57.2c-29.91,129.56-104.84,237.61-204.42,311.5l-78.23-338.82c4.4-11.39,8.07-23.2,10.89-35.42l103.91-450.31c98.37,80.08,145.26,297.36,174.63,424.61Z"/>
            <path class="cls-79" d="M1073.52,566.75l7.52,32.61-13.64,55.67c-29.85,129.3-104.54,237.17-203.82,311.05l-78.38-339.52c4.21-11.03,7.72-22.46,10.45-34.27l103.74-449.54c98.1,79.94,144.81,296.99,174.14,424.01Z"/>
            <path class="cls-82" d="M1072.85,566.9l7.85,33.99-13.29,54.13c-29.79,129.04-104.23,236.73-203.21,310.59l-78.55-340.22c4.01-10.67,7.37-21.72,10-33.12l103.56-448.78c97.83,79.8,144.37,296.62,173.64,423.39Z"/>
            <path class="cls-61" d="M1072.18,567.05l8.16,35.37-12.93,52.6c-29.73,128.77-103.93,236.29-202.62,310.15l-78.7-340.92c3.82-10.32,7.03-20.98,9.56-31.97l103.39-448.02c97.55,79.66,143.93,296.26,173.14,422.79Z"/>
            <path class="cls-63" d="M1071.5,567.21l8.48,36.75-12.58,51.07c-29.67,128.51-103.62,235.85-202.01,309.69l-78.88-341.67c3.63-9.94,6.69-20.2,9.13-30.76l103.21-447.26c97.27,79.52,143.48,295.89,172.65,422.19Z"/>
            <path class="cls-55" d="M1070.83,567.37l8.8,38.12-12.23,49.53c-29.61,128.25-103.32,235.41-201.4,309.24l-79.06-342.43c3.44-9.57,6.36-19.42,8.7-29.55l103.03-446.5c97,79.39,143.04,295.51,172.15,421.58Z"/>
            <path class="cls-62" d="M1070.16,567.52l9.12,39.5-11.87,48c-29.55,127.99-103.02,234.98-200.8,308.79l-79.23-343.19c3.25-9.19,6.03-18.63,8.27-28.35l102.86-445.74c96.72,79.25,142.6,295.15,171.65,420.98Z"/>
            <path class="cls-54" d="M1069.49,567.68l9.43,40.88-11.51,46.46c-29.49,127.72-102.72,234.54-200.19,308.34l-79.41-343.94c3.07-8.81,5.7-17.85,7.84-27.14l102.68-444.98c96.45,79.11,142.16,294.78,171.16,420.38Z"/>
            <path class="cls-56" d="M1068.81,567.83l9.76,42.26-11.16,44.93c-29.43,127.46-102.41,234.1-199.59,307.89l-79.58-344.7c2.89-8.42,5.37-17.07,7.41-25.93l102.51-444.22c96.17,78.98,141.71,294.41,170.65,419.77Z"/>
            <path class="cls-58" d="M1068.14,567.99l10.08,43.64-10.81,43.39c-29.37,127.19-102.11,233.67-198.98,307.43l-79.77-345.5c2.7-8.03,5.05-16.25,6.99-24.67l102.34-443.47c95.89,78.84,141.27,294.05,170.15,419.18Z"/>
            <path class="cls-53" d="M1067.47,568.15l10.39,45.02-10.45,41.86c-29.3,126.94-101.8,233.24-198.38,306.98l-79.95-346.32c2.53-7.63,4.74-15.43,6.58-23.41l102.16-442.71c95.62,78.71,140.82,293.68,169.66,418.57Z"/>
            <path class="cls-52" d="M1066.79,568.3l10.71,46.4-10.1,40.33c-29.25,126.67-101.5,232.8-197.78,306.53l-80.14-347.14c2.35-7.22,4.42-14.6,6.16-22.14l101.99-441.96c95.34,78.57,140.38,293.31,169.16,417.97Z"/>
            <path class="cls-76" d="M1066.12,568.45l11.03,47.77-9.74,38.8c-29.18,126.41-101.2,232.35-197.18,306.06l-80.33-347.94c2.18-6.82,4.11-13.77,5.75-20.86l101.81-441.2c95.06,78.43,139.94,292.95,168.66,417.37Z"/>
            <path class="cls-57" d="M1065.45,568.61l11.35,49.16-9.39,37.26c-29.12,126.14-100.9,231.9-196.58,305.59l-80.51-348.74c2.01-6.42,3.8-12.95,5.33-19.6l101.63-440.44c94.79,78.29,139.49,292.58,168.17,416.77Z"/>
            <path class="cls-64" d="M1064.78,568.77l11.67,50.53-9.04,35.72c-29.06,125.88-100.61,231.45-195.98,305.12l-80.71-349.59c1.85-5.99,3.5-12.08,4.93-18.27l101.46-439.69c94.51,78.16,139.05,292.22,167.66,416.17Z"/>
            <path class="cls-46" d="M1064.1,568.92l11.98,51.92-8.68,34.19c-29,125.61-100.31,231-195.38,304.65l-80.91-350.46c1.69-5.56,3.21-11.19,4.53-16.93l101.29-438.93c94.23,78.02,138.61,291.85,167.17,415.57Z"/>
            <path class="cls-102" d="M1063.43,569.08l12.31,53.29-8.33,32.65c-28.94,125.34-100.01,230.55-194.78,304.18l-81.11-351.32c1.52-5.12,2.91-10.32,4.13-15.6l101.11-438.18c93.96,77.89,138.17,291.48,166.67,414.97Z"/>
            <path class="cls-103" d="M1062.76,569.23l12.62,54.67-7.97,31.12c-28.88,125.08-99.71,230.1-194.18,303.71l-81.31-352.19c1.37-4.69,2.62-9.45,3.73-14.26l100.94-437.42c93.68,77.75,137.71,291.12,166.17,414.37Z"/>
            <path class="cls-101" d="M1062.09,569.38l12.94,56.05-7.62,29.59c-28.82,124.81-99.41,229.65-193.58,303.24l-81.51-353.06c1.22-4.25,2.33-8.56,3.33-12.92l100.76-436.67c93.4,77.62,137.27,290.76,165.67,413.78Z"/>
            <path class="cls-60" d="M1061.41,569.54l13.26,57.43-7.27,28.05c-28.76,124.55-99.11,229.21-192.98,302.77l-81.72-354c1.06-3.8,2.05-7.63,2.95-11.51l100.59-435.92c93.13,77.48,136.83,290.39,165.18,413.18Z"/>
            <path class="cls-51" d="M1060.74,569.7l13.58,58.81-6.91,26.52c-28.69,124.28-98.81,228.76-192.38,302.3l-81.94-354.94c.91-3.34,1.78-6.7,2.57-10.1l100.42-435.17c92.85,77.36,136.38,290.03,164.67,412.58Z"/>
            <path class="cls-28" d="M1059.1,418.82l14.86,211.22-6.56,24.98c-28.63,124.02-98.51,228.32-191.78,301.82l-82.16-355.88c.77-2.87,1.51-5.76,2.18-8.69l100.25-434.41c92.57,77.22,134.97,138.63,163.21,260.95Z"/>
            <path class="cls-35" d="M1058.43,418.97l15.18,212.61-6.21,23.45c-28.57,123.75-98.21,227.87-191.18,301.35l-82.38-356.81c.63-2.42,1.23-4.84,1.8-7.28l100.07-433.66c92.29,77.09,134.53,138.27,162.71,260.35Z"/>
            <path class="cls-29" d="M1057.76,419.13l15.49,213.98-5.85,21.91c-28.51,123.49-97.91,227.43-190.58,300.88l-82.61-357.79c.5-1.93.98-3.88,1.43-5.83l99.9-432.91c92.01,76.95,134.08,137.9,162.22,259.75Z"/>
            <path class="cls-34" d="M1057.09,419.28l15.81,215.36-5.49,20.38c-28.45,123.22-97.61,226.98-189.98,300.41l-82.84-358.81c.36-1.45.73-2.89,1.06-4.34l99.72-432.15c91.73,76.81,133.64,137.54,161.71,259.15Z"/>
            <path class="cls-33" d="M1056.41,419.44l16.13,216.74-5.14,18.85c-28.39,122.95-97.31,226.54-189.38,299.94l-83.07-359.83c.23-.95.48-1.9.69-2.85l99.55-431.4c91.45,76.68,133.19,137.17,161.22,258.56Z"/>
            <path class="cls-31" d="M1055.74,419.6l16.45,218.12-4.78,17.31c-28.33,122.69-97.01,226.1-188.78,299.47l-83.3-360.85c.11-.46.23-.91.33-1.36l99.37-430.65c91.18,76.56,132.75,136.81,160.72,257.97Z"/>
            <path class="cls-30" d="M1055.07,419.75l16.77,219.5-4.43,15.78c-28.26,122.42-96.7,225.66-188.18,299l-83.54-361.88,99.17-429.76c90.9,76.42,132.3,136.44,160.22,257.37Z"/>
            <path class="cls-27" d="M1054.4,419.9l17.09,220.87-4.08,14.24c-28.2,122.15-96.4,225.22-187.58,298.53l-83.79-362.94,98.65-427.48c90.62,76.29,131.86,136.08,159.72,256.77Z"/>
            <path class="cls-26" d="M1053.72,420.06l17.4,222.25-3.72,12.71c-28.14,121.89-96.11,224.76-186.98,298.04l-84.03-363.98,98.11-425.2c90.34,76.15,131.41,135.72,159.22,256.18Z"/>
            <path class="cls-95" d="M1053.05,420.22l17.72,223.63-3.37,11.17c-28.08,121.62-95.82,224.3-186.39,297.55l-84.27-365.03,97.59-422.91c90.06,76.02,130.96,135.36,158.72,255.59Z"/>
            <path class="cls-96" d="M1052.37,420.37l18.05,225.02-3.01,9.64c-28.02,121.35-95.52,223.83-185.79,297.06l-84.51-366.07,97.06-420.63c89.78,75.88,130.52,135,158.22,254.99Z"/>
            <path class="cls-24" d="M1051.7,420.53l18.36,226.4-2.66,8.1c-27.96,121.08-95.23,223.38-185.2,296.57l-84.75-367.11,96.53-418.35c89.51,75.76,130.07,134.64,157.72,254.4Z"/>
            <path class="cls-32" d="M1051.03,420.68l18.68,227.77-2.31,6.57c-27.9,120.82-94.93,222.92-184.6,296.08l-85-368.16,96.01-416.07c89.22,75.63,129.62,134.28,157.22,253.81Z"/>
            <path class="cls-25" d="M1050.36,420.84l19,229.15-1.95,5.03c-27.83,120.55-94.64,222.46-184.01,295.58l-85.24-369.2,95.48-413.79c88.94,75.5,129.18,133.92,156.72,253.22Z"/>
            <path class="cls-22" d="M1049.69,420.99l19.32,230.53-1.6,3.5c-27.77,120.28-94.34,222.01-183.41,295.1l-85.48-370.25,94.95-411.51c88.66,75.37,128.73,133.56,156.21,252.63Z"/>
            <path class="cls-97" d="M1049.01,421.15l19.64,231.91-1.25,1.96c-27.71,120.01-94.04,221.56-182.82,294.6l-85.72-371.29,94.43-409.23c88.38,75.24,128.28,133.2,155.71,252.04Z"/>
            <path class="cls-23" d="M1048.34,421.3l19.95,233.29-.89.43c-27.65,119.74-93.75,221.1-182.22,294.12l-85.96-372.34,93.9-406.95c88.11,75.1,127.84,132.84,155.22,251.45Z"/>
            <path class="cls-20" d="M1059.7,425.73l8.24,230.4-.54-1.1c-27.59,119.47-93.45,220.65-181.63,293.63l-86.2-373.38,93.38-404.67c87.82,74.97,139.42,136.74,166.75,255.13Z"/>
            <path class="cls-98" d="M1059.03,425.88l8.55,231.78-.18-2.64c-27.52,119.21-93.15,220.19-181.03,293.14l-86.44-374.42,92.85-402.39c87.54,74.84,138.97,136.38,166.25,254.54Z"/>
            <path class="cls-100" d="M1058.36,426.03l8.87,233.16.18-4.17c-27.46,118.94-92.86,219.75-180.44,292.64l-86.68-375.47,92.33-400.12c87.26,74.72,138.52,136.03,165.75,253.96Z"/>
            <path class="cls-21" d="M1057.69,426.19l9.19,234.54.53-5.71c-27.4,118.67-92.56,219.29-179.84,292.16l-86.92-376.51,91.8-397.85c86.98,74.59,138.08,135.68,165.25,253.37Z"/>
            <path class="cls-99" d="M1057.01,426.34l9.51,235.92.88-7.24c-27.33,118.4-92.26,218.84-179.25,291.67l-87.17-377.56,91.28-395.57c86.7,74.46,137.62,135.32,164.74,252.78Z"/>
            <path class="cls-92" d="M1056.34,426.5l9.83,237.3,1.24-8.78c-27.27,118.13-91.96,218.39-178.65,291.17l-87.4-378.6,90.75-393.29c86.42,74.33,137.18,134.96,164.25,252.2Z"/>
            <path class="cls-18" d="M1055.67,426.66l10.15,238.68,1.59-10.31c-27.21,117.87-91.66,217.94-178.06,290.68l-87.65-379.64,90.23-391.01c86.13,74.2,136.72,134.6,163.74,251.61Z"/>
            <path class="cls-19" d="M1055,426.81l10.46,240.06,1.94-11.84c-27.15,117.59-91.37,217.49-177.46,290.19l-87.89-380.68,89.7-388.74c85.86,74.07,136.28,134.25,163.24,251.02Z"/>
            <path class="cls-94" d="M1054.32,426.96l10.79,241.44,2.3-13.38c-27.09,117.33-91.08,217.02-176.87,289.68l-88.12-381.7,89.17-386.47c85.57,73.94,135.83,133.89,162.73,250.44Z"/>
            <path class="cls-12" d="M1053.65,427.13l11.11,242.81,2.65-14.91c-27.02,117.05-90.79,216.55-176.28,289.17l-88.36-382.73,88.65-384.19c85.29,73.81,135.38,133.53,162.23,249.86Z"/>
            <path class="cls-4" d="M1052.98,427.28l11.42,244.19,3.01-16.45c-26.96,116.78-90.49,216.09-175.69,288.66l-88.6-383.75,88.12-381.92c85,73.69,134.93,133.17,161.73,249.27Z"/>
            <path class="cls-93" d="M1052.3,427.43l11.74,245.57,3.36-17.98c-26.9,116.51-90.2,215.62-175.1,288.15l-88.83-384.78,87.6-379.65c84.72,73.57,134.48,132.83,161.23,248.69Z"/>
            <path class="cls-17" d="M1051.63,427.59l12.06,246.95,3.72-19.52c-26.83,116.24-89.91,215.16-174.51,287.63l-89.07-385.8,87.07-377.38c84.44,73.44,134.03,132.47,160.73,248.11Z"/>
            <path class="cls-15" d="M1050.96,427.74l12.37,248.33,4.07-21.05c-26.77,115.97-89.62,214.69-173.92,287.13l-89.31-386.83,86.55-375.1c84.16,73.31,133.58,132.11,160.23,247.52Z"/>
            <path class="cls-8" d="M1050.29,427.9l12.69,249.71,4.42-22.58c-26.71,115.7-89.32,214.22-173.32,286.62l-89.54-387.85,86.03-372.83c83.87,73.19,133.13,131.76,159.72,246.95Z"/>
            <path class="cls-10" d="M1049.61,428.06l13.01,251.09,4.78-24.12c-26.65,115.42-89.03,213.76-172.74,286.1l-89.78-388.87,85.5-370.57c83.59,73.07,132.68,131.41,159.22,246.37Z"/>
            <path class="cls-16" d="M1048.94,428.21l13.33,252.47,5.13-25.65c-26.59,115.15-88.74,213.3-172.15,285.59l-90.01-389.9,84.98-368.29c83.3,72.94,132.23,131.06,158.72,245.79Z"/>
            <path class="cls-13" d="M1048.27,428.36l13.65,253.85,5.49-27.19c-26.53,114.88-88.44,212.84-171.56,285.08l-90.25-390.92,84.45-366.02c83.03,72.81,131.78,130.7,158.21,245.21Z"/>
            <path class="cls-6" d="M1047.6,428.52l13.97,255.23,5.84-28.72c-26.46,114.61-88.15,212.38-170.96,284.57l-90.49-391.94,94.45-409.09c82.74,72.69,120.81,175.68,147.2,289.95Z"/>
            <path class="cls-9" d="M1046.92,428.68l14.29,256.61,6.2-30.26c-26.4,114.34-87.86,211.92-170.37,284.06l-90.72-392.98,93.92-406.81c82.46,72.56,120.37,175.33,146.69,289.38Z"/>
            <path class="cls-14" d="M1046.25,428.83l14.6,257.98,6.55-31.79c-26.34,114.07-87.56,211.46-169.78,283.55l-90.96-393.99,93.6-405.65c82.17,72.44,119.71,176.07,145.99,289.9Z"/>
            <path class="cls-11" d="M1045.58,428.98l48.43,108.85-26.6,117.19c-26.27,113.79-87.27,211-169.2,283.04l-91.19-395.02,93.38-404.48c81.89,72.32,118.95,176.82,145.18,290.42Z"/>
            <path class="cls-7" d="M1044.9,429.14l49.1,109.62-26.6,116.27c-26.21,113.52-86.97,210.54-168.6,282.53l-91.43-396.04,93.03-402.95c81.6,72.2,118.33,177.2,144.5,290.57Z"/>
            <path class="cls-3" d="M1044.23,429.3l50.44,107.61-27.27,118.12c-26.15,113.25-86.67,210.08-168.01,282.02l-91.67-397.07,92.84-402.13c81.31,72.07,117.54,178.31,143.67,291.46Z"/>
            <path class="cls-5" d="M1068.08,418.64l26.24,119.8-26.92,116.58c-26.08,112.98-86.38,209.61-167.42,281.5l-91.9-398.08,92.31-399.87c80.43,72.97,139.14,171.31,167.69,280.07Z"/>
          </g>
          <path class="cls-104" d="M1067.41,418.8l27.27,118.11-27.27,118.12c-26.02,112.71-86.1,209.14-166.84,280.96l-92.13-399.08,91.79-397.59c80.74,71.83,141.16,166.77,167.18,279.47Z"/>
        </g>
        <path class="cls-2" d="M1067.41,418.8l151.14,654.65h-286.24l-136.66-591.92c-32.35-140.12-173.46-228.3-313.59-195.95-140.13,32.35-228.3,173.47-195.96,313.59l-269.92,62.28C-57.81,367.45,129.73,80.68,419.32,13.82c289.59-66.86,581.23,115.38,648.09,404.97Z"/>
      </g>
    </g>
  </g>
</svg>