<svg width="910" height="341" viewBox="0 0 910 341" fill="none" xmlns="http://www.w3.org/2000/svg">
<path d="M378.811 147.41H398.422V225.362H378.811V217.117C375.011 220.759 371.16 223.339 367.308 224.958C363.457 226.576 359.302 227.335 354.792 227.335C344.708 227.335 335.992 223.44 328.644 215.599C321.296 207.809 317.597 198.097 317.597 186.462C317.597 174.827 321.144 164.558 328.289 156.869C335.434 149.18 344.049 145.336 354.235 145.336C358.897 145.336 363.305 146.196 367.41 147.966C371.514 149.737 375.315 152.367 378.811 155.908V147.308V147.41ZM358.238 163.445C352.208 163.445 347.14 165.57 343.137 169.87C339.134 174.119 337.107 179.633 337.107 186.31C337.107 192.987 339.134 198.603 343.238 202.953C347.292 207.303 352.309 209.478 358.288 209.478C364.268 209.478 369.538 207.354 373.592 203.054C377.646 198.805 379.673 193.19 379.673 186.26C379.673 179.329 377.646 173.967 373.592 169.769C369.538 165.57 364.42 163.445 358.238 163.445Z" fill="black"/>
<path d="M472.862 117.362H492.473V225.362H472.862V217.117C469.062 220.759 465.211 223.339 461.359 224.958C457.508 226.576 453.353 227.335 448.843 227.335C438.759 227.335 430.043 223.44 422.695 215.599C415.347 207.809 411.648 198.097 411.648 186.462C411.648 174.827 415.195 164.558 422.34 156.869C429.485 149.18 438.1 145.336 448.286 145.336C452.948 145.336 457.356 146.196 461.461 147.966C465.565 149.737 469.366 152.367 472.862 155.908V117.21V117.362ZM452.289 163.445C446.259 163.445 441.191 165.57 437.188 169.87C433.185 174.119 431.158 179.633 431.158 186.31C431.158 192.987 433.185 198.603 437.289 202.953C441.343 207.303 446.36 209.478 452.339 209.478C458.319 209.478 463.589 207.354 467.643 203.054C471.697 198.805 473.724 193.19 473.724 186.26C473.724 179.329 471.697 173.967 467.643 169.769C463.589 165.57 458.471 163.445 452.289 163.445Z" fill="black"/>
<path d="M511.679 147.41H531.29V227.942C531.29 235.328 530.58 240.892 529.111 244.535C527.641 248.177 525.361 251.009 522.168 252.932C518.976 254.854 515.226 255.866 510.767 255.866C506.865 255.866 501.949 254.905 496.122 252.932V237.554C499.162 239.021 501.899 239.779 504.23 239.779C506.713 239.779 508.588 239.021 509.804 237.554C511.02 236.087 511.679 233.355 511.679 229.409V147.41ZM521.459 115.338C524.955 115.338 527.945 116.603 530.378 119.031C532.861 121.51 534.077 124.494 534.077 128.035C534.077 131.576 532.861 134.51 530.428 136.989C527.996 139.468 525.057 140.682 521.662 140.682C518.266 140.682 515.175 139.417 512.743 136.888C510.26 134.358 509.044 131.323 509.044 127.732C509.044 124.14 510.26 121.358 512.692 118.93C515.125 116.502 518.013 115.288 521.459 115.288V115.338Z" fill="black"/>
<path d="M550.394 147.41H570.207V184.944C570.207 192.229 570.714 197.338 571.728 200.171C572.741 203.004 574.363 205.229 576.592 206.797C578.822 208.366 581.558 209.175 584.802 209.175C588.045 209.175 590.832 208.416 593.112 206.848C595.392 205.28 597.065 203.004 598.179 200.019C598.99 197.793 599.396 192.988 599.396 185.602V147.41H619.007V180.442C619.007 194.05 617.942 203.358 615.763 208.366C613.128 214.487 609.277 219.191 604.159 222.429C599.041 225.717 592.555 227.335 584.649 227.335C576.086 227.335 569.143 225.413 563.873 221.619C558.603 217.775 554.853 212.463 552.725 205.634C551.205 200.93 550.444 192.33 550.444 179.835V147.41H550.394Z" fill="black"/>
<path d="M686.403 158.336L674.292 170.426C669.376 165.57 664.917 163.142 660.863 163.142C658.684 163.142 656.961 163.597 655.694 164.558C654.428 165.469 653.82 166.632 653.82 168.049C653.82 169.111 654.225 170.072 654.985 170.932C655.796 171.792 657.721 173.006 660.813 174.524L668.008 178.115C675.559 181.859 680.778 185.653 683.565 189.497C686.352 193.342 687.822 197.894 687.822 203.105C687.822 210.035 685.288 215.802 680.17 220.456C675.052 225.11 668.262 227.386 659.698 227.386C648.296 227.386 639.225 222.934 632.435 214.082L644.495 200.98C646.776 203.661 649.462 205.836 652.553 207.455C655.644 209.124 658.38 209.934 660.762 209.934C663.346 209.934 665.424 209.327 666.995 208.062C668.566 206.797 669.376 205.381 669.376 203.762C669.376 200.778 666.539 197.793 660.813 194.96L654.225 191.672C641.607 185.298 635.273 177.356 635.273 167.796C635.273 161.624 637.654 156.363 642.418 152.013C647.181 147.663 653.262 145.437 660.661 145.437C665.728 145.437 670.491 146.55 675.001 148.775C679.461 151.001 683.261 154.188 686.352 158.336H686.403Z" fill="black"/>
<path d="M709.206 118.677H728.817V147.41H740.422V164.255H728.817V225.363H709.206V164.255H699.173V147.41H709.206V118.677Z" fill="black"/>
<path d="M787.549 145.437C794.896 145.437 801.839 147.258 808.325 150.951C814.811 154.643 819.879 159.601 823.527 165.924C827.176 172.247 829 179.026 829 186.361C829 193.696 827.176 200.575 823.527 207C819.879 213.424 814.862 218.382 808.578 222.024C802.244 225.615 795.302 227.436 787.701 227.436C776.502 227.436 766.975 223.44 759.019 215.498C751.114 207.556 747.161 197.894 747.161 186.512C747.161 174.321 751.621 164.204 760.59 156.06C768.444 148.978 777.465 145.437 787.65 145.437H787.549ZM787.853 163.85C781.772 163.85 776.704 165.975 772.65 170.173C768.597 174.372 766.57 179.785 766.57 186.411C766.57 193.038 768.546 198.704 772.549 202.902C776.552 207.101 781.62 209.226 787.751 209.226C793.883 209.226 799.001 207.101 803.055 202.852C807.109 198.603 809.186 193.139 809.186 186.462C809.186 179.785 807.159 174.321 803.207 170.173C799.204 165.975 794.086 163.901 787.853 163.901V163.85Z" fill="black"/>
<path d="M253.135 211.525L197.071 99.0778C189.34 83.5709 170.48 77.2566 154.946 84.9746L151.407 86.7327C135.873 94.4507 129.548 113.278 137.279 128.785L193.343 241.232C201.074 256.739 219.935 263.053 235.469 255.335L239.007 253.577C254.541 245.859 260.867 227.032 253.135 211.525Z" fill="#A13BFF"/>
<path d="M83.2297 212.362C84.7499 208.416 86.9289 205.027 89.8173 202.144C92.7057 199.26 96.2022 196.984 100.307 195.315C104.411 193.645 109.175 192.836 114.648 192.836C125.289 192.836 133.549 195.871 139.478 201.941C145.407 208.012 148.346 215.549 148.346 224.654C148.346 229.814 147.586 234.519 146.066 238.717C144.545 242.966 142.366 246.507 139.478 249.391C136.589 252.274 133.093 254.551 128.988 256.22C124.884 257.889 120.12 258.699 114.648 258.699C104.006 258.699 95.7462 255.663 89.868 249.593C83.9391 243.523 81 235.379 81 225.059C81 220.506 81.7601 216.257 83.2803 212.362H83.2297Z" fill="#A13BFF"/>
</svg>
