<svg width="200" height="200" viewBox="0 0 200 200" fill="none" xmlns="http://www.w3.org/2000/svg">
<g clip-path="url(#clip0_2009_897)">
<path d="M184.71 141.525L128.784 29.0778C121.072 13.5709 102.258 7.25665 86.7628 14.9746L83.233 16.7327C67.7375 24.4507 61.4279 43.2782 69.1402 58.7851L125.065 171.232C132.778 186.739 151.591 193.053 167.087 185.335L170.617 183.577C186.112 175.859 192.422 157.032 184.71 141.525Z" fill="white"/>
<path d="M15.2241 142.362C16.7406 138.416 18.9142 135.027 21.7955 132.143C24.6768 129.26 28.1646 126.984 32.2591 125.314C36.3536 123.645 41.1051 122.836 46.5644 122.836C57.1797 122.836 65.4191 125.871 71.3333 131.941C77.2475 138.011 80.1794 145.549 80.1794 154.654C80.1794 159.814 79.4211 164.518 77.9047 168.717C76.3882 172.966 74.2146 176.507 71.3333 179.391C68.452 182.274 64.9642 184.55 60.8697 186.22C56.7753 187.889 52.0237 188.699 46.5644 188.699C35.9492 188.699 27.7097 185.663 21.846 179.593C15.9318 173.523 13 165.378 13 155.059C13 150.506 13.7582 146.257 15.2747 142.362H15.2241Z" fill="white"/>
</g>
<defs>
<clipPath id="clip0_2009_897">
<rect width="200" height="200" fill="white"/>
</clipPath>
</defs>
</svg>
