<svg width="747" height="177" viewBox="0 0 747 177" fill="none" xmlns="http://www.w3.org/2000/svg">
<g clip-path="url(#clip0_2009_364)">
<path d="M297.464 65.711H317.049V143.664H297.464V135.418C293.669 139.061 289.822 141.64 285.976 143.259C282.13 144.878 277.981 145.637 273.477 145.637C263.406 145.637 254.702 141.742 247.364 133.901C240.026 126.111 236.332 116.398 236.332 104.763C236.332 93.1285 239.874 82.8596 247.009 75.1705C254.145 67.4815 262.748 63.637 272.92 63.637C277.576 63.637 281.978 64.4969 286.078 66.2674C290.177 68.0379 293.972 70.6684 297.464 74.2094V65.6098V65.711ZM276.918 81.7467C270.896 81.7467 265.835 83.8713 261.837 88.1711C257.839 92.4203 255.815 97.9342 255.815 104.612C255.815 111.289 257.839 116.904 261.938 121.254C265.987 125.605 270.997 127.78 276.968 127.78C282.94 127.78 288.203 125.655 292.252 121.355C296.3 117.106 298.324 111.491 298.324 104.561C298.324 97.6307 296.3 92.2686 292.252 88.0699C288.203 83.8713 283.092 81.7467 276.918 81.7467Z" fill="black"/>
<path d="M391.389 35.663H410.974V143.664H391.389V135.418C387.594 139.061 383.748 141.64 379.902 143.259C376.056 144.878 371.906 145.637 367.402 145.637C357.331 145.637 348.627 141.742 341.289 133.901C333.951 126.111 330.257 116.398 330.257 104.763C330.257 93.1285 333.799 82.8596 340.935 75.1706C348.07 67.4815 356.673 63.637 366.845 63.637C371.501 63.637 375.904 64.4969 380.003 66.2674C384.102 68.0379 387.897 70.6684 391.389 74.2094V35.5112V35.663ZM370.843 81.7467C364.821 81.7467 359.76 83.8713 355.762 88.1711C351.765 92.4203 349.74 97.9342 349.74 104.612C349.74 111.289 351.765 116.904 355.864 121.254C359.912 125.605 364.922 127.78 370.894 127.78C376.865 127.78 382.128 125.655 386.177 121.355C390.225 117.106 392.25 111.491 392.25 104.561C392.25 97.6307 390.225 92.2686 386.177 88.07C382.128 83.8713 377.017 81.7467 370.843 81.7467Z" fill="black"/>
<path d="M430.154 65.7109H449.738V146.244C449.738 153.629 449.03 159.194 447.562 162.836C446.095 166.478 443.818 169.311 440.629 171.233C437.441 173.155 433.696 174.167 429.243 174.167C425.346 174.167 420.437 173.206 414.618 171.233V155.855C417.654 157.322 420.387 158.081 422.715 158.081C425.194 158.081 427.067 157.322 428.281 155.855C429.496 154.388 430.154 151.656 430.154 147.711V65.7109ZM439.921 33.6395C443.413 33.6395 446.398 34.9041 448.828 37.3322C451.307 39.8109 452.522 42.7955 452.522 46.3365C452.522 49.8775 451.307 52.8115 448.878 55.2902C446.449 57.7689 443.514 58.983 440.123 58.983C436.733 58.983 433.646 57.7183 431.217 55.189C428.737 52.6597 427.522 49.6246 427.522 46.033C427.522 42.4414 428.737 39.6592 431.166 37.2311C433.595 34.8029 436.48 33.5889 439.921 33.5889V33.6395Z" fill="black"/>
<path d="M468.817 65.7109H488.604V103.246C488.604 110.53 489.11 115.639 490.122 118.472C491.134 121.305 492.754 123.531 494.98 125.099C497.207 126.667 499.94 127.476 503.179 127.476C506.417 127.476 509.201 126.718 511.478 125.149C513.755 123.581 515.425 121.305 516.539 118.32C517.348 116.094 517.753 111.289 517.753 103.903V65.7109H537.338V98.7435C537.338 112.351 536.275 121.659 534.099 126.667C531.468 132.788 527.621 137.492 522.51 140.73C517.399 144.018 510.921 145.637 503.027 145.637C494.474 145.637 487.541 143.714 482.278 139.92C477.015 136.076 473.27 130.764 471.145 123.935C469.627 119.231 468.868 110.631 468.868 98.1365V65.7109H468.817Z" fill="black"/>
<path d="M604.644 76.6374L592.549 88.7275C587.641 83.8712 583.187 81.4431 579.139 81.4431C576.963 81.4431 575.242 81.8984 573.977 82.8595C572.712 83.77 572.104 84.9335 572.104 86.3499C572.104 87.4122 572.509 88.3734 573.268 89.2333C574.078 90.0933 576.001 91.3073 579.088 92.8249L586.274 96.4165C593.815 100.16 599.027 103.954 601.81 107.798C604.594 111.643 606.061 116.196 606.061 121.406C606.061 128.336 603.531 134.103 598.42 138.757C593.308 143.411 586.527 145.687 577.975 145.687C566.588 145.687 557.53 141.236 550.749 132.383L562.793 119.281C565.07 121.962 567.752 124.138 570.839 125.756C573.926 127.426 576.659 128.235 579.037 128.235C581.618 128.235 583.693 127.628 585.262 126.363C586.831 125.099 587.641 123.682 587.641 122.064C587.641 119.079 584.807 116.094 579.088 113.262L572.509 109.974C559.908 103.6 553.582 95.6577 553.582 86.097C553.582 79.9255 555.961 74.6646 560.718 70.3142C565.475 65.9638 571.548 63.738 578.936 63.738C583.997 63.738 588.754 64.8509 593.258 67.0767C597.711 69.3025 601.507 72.4894 604.594 76.6374H604.644Z" fill="black"/>
<path d="M627.417 36.978H647.002V65.7108H658.591V82.5559H647.002V143.664H627.417V82.5559H617.397V65.7108H627.417V36.978Z" fill="black"/>
<path d="M705.655 63.738C712.992 63.738 719.925 65.5591 726.403 69.2519C732.881 72.9447 737.941 77.9021 741.585 84.2253C745.229 90.5485 747.05 97.3271 747.05 104.662C747.05 111.997 745.229 118.877 741.585 125.301C737.941 131.725 732.931 136.683 726.656 140.325C720.33 143.917 713.397 145.738 705.806 145.738C694.622 145.738 685.108 141.741 677.163 133.799C669.269 125.857 665.321 116.196 665.321 104.814C665.321 92.6226 669.775 82.5054 678.732 74.3611C686.576 67.279 695.584 63.738 705.756 63.738H705.655ZM705.958 82.1513C699.885 82.1513 694.825 84.2759 690.776 88.4745C686.728 92.6732 684.704 98.0858 684.704 104.713C684.704 111.339 686.677 117.005 690.675 121.204C694.673 125.402 699.734 127.527 705.857 127.527C711.98 127.527 717.092 125.402 721.14 121.153C725.189 116.904 727.263 111.441 727.263 104.763C727.263 98.0858 725.239 92.6226 721.292 88.4745C717.294 84.2759 712.183 82.2019 705.958 82.2019V82.1513Z" fill="black"/>
<path d="M171.956 129.826L115.967 17.3791C108.246 1.87213 89.4106 -4.44208 73.8974 3.27588L70.3636 5.03398C54.8504 12.7519 48.5336 31.5795 56.2547 47.0864L112.243 159.533C119.964 175.04 138.8 181.355 154.313 173.637L157.847 171.879C173.36 164.161 179.677 145.333 171.956 129.826Z" fill="black"/>
<path d="M2.27722 130.663C3.79541 126.717 5.97148 123.328 8.85604 120.445C11.7406 117.561 15.2324 115.285 19.3315 113.616C23.4307 111.946 28.1877 111.137 33.6531 111.137C44.2805 111.137 52.5293 114.172 58.4502 120.242C64.3712 126.313 67.3063 133.85 67.3063 142.955C67.3063 148.115 66.5472 152.82 65.0291 157.018C63.5109 161.268 61.3348 164.809 58.4502 167.692C55.5657 170.575 52.0738 172.852 47.9747 174.521C43.8756 176.19 39.1186 177 33.6531 177C23.0258 177 14.777 173.965 8.90664 167.894C2.9857 161.824 0.0505371 153.68 0.0505371 143.36C0.0505371 138.807 0.809632 134.558 2.32782 130.663H2.27722Z" fill="black"/>
</g>
<defs>
<clipPath id="clip0_2009_364">
<rect width="747" height="177" fill="white"/>
</clipPath>
</defs>
</svg>
