<svg width="748" height="177" viewBox="0 0 748 177" fill="none" xmlns="http://www.w3.org/2000/svg">
<g clip-path="url(#clip0_2009_379)">
<path d="M297.862 65.711H317.473V143.664H297.862V135.418C294.062 139.061 290.21 141.64 286.359 143.259C282.508 144.878 278.353 145.637 273.843 145.637C263.759 145.637 255.043 141.742 247.695 133.901C240.347 126.111 236.648 116.398 236.648 104.763C236.648 93.1285 240.195 82.8596 247.34 75.1705C254.485 67.4815 263.1 63.637 273.285 63.637C277.947 63.637 282.356 64.4969 286.461 66.2674C290.565 68.0379 294.366 70.6684 297.862 74.2094V65.6098V65.711ZM277.289 81.7467C271.258 81.7467 266.191 83.8713 262.188 88.1711C258.184 92.4203 256.157 97.9342 256.157 104.612C256.157 111.289 258.184 116.904 262.289 121.254C266.343 125.605 271.36 127.78 277.339 127.78C283.319 127.78 288.589 125.655 292.643 121.355C296.697 117.106 298.724 111.491 298.724 104.561C298.724 97.6307 296.697 92.2686 292.643 88.0699C288.589 83.8713 283.471 81.7467 277.289 81.7467Z" fill="black"/>
<path d="M391.913 35.663H411.524V143.664H391.913V135.418C388.113 139.061 384.261 141.64 380.41 143.259C376.559 144.878 372.404 145.637 367.894 145.637C357.81 145.637 349.094 141.742 341.746 133.901C334.398 126.111 330.699 116.398 330.699 104.763C330.699 93.1285 334.246 82.8596 341.391 75.1706C348.536 67.4815 357.151 63.637 367.336 63.637C371.998 63.637 376.407 64.4969 380.512 66.2674C384.616 68.0379 388.417 70.6684 391.913 74.2094V35.5112V35.663ZM371.34 81.7467C365.309 81.7467 360.242 83.8713 356.239 88.1711C352.235 92.4203 350.208 97.9342 350.208 104.612C350.208 111.289 352.235 116.904 356.34 121.254C360.394 125.605 365.411 127.78 371.39 127.78C377.37 127.78 382.64 125.655 386.694 121.355C390.748 117.106 392.775 111.491 392.775 104.561C392.775 97.6307 390.748 92.2686 386.694 88.07C382.64 83.8713 377.522 81.7467 371.34 81.7467Z" fill="black"/>
<path d="M430.73 65.7109H450.34V146.244C450.34 153.629 449.631 159.194 448.161 162.836C446.692 166.478 444.412 169.311 441.219 171.233C438.027 173.155 434.277 174.167 429.817 174.167C425.916 174.167 421 173.206 415.173 171.233V155.855C418.213 157.322 420.949 158.081 423.28 158.081C425.763 158.081 427.638 157.322 428.855 155.855C430.071 154.388 430.73 151.656 430.73 147.711V65.7109ZM440.51 33.6395C444.006 33.6395 446.996 34.9041 449.428 37.3322C451.911 39.8109 453.127 42.7955 453.127 46.3365C453.127 49.8775 451.911 52.8115 449.479 55.2902C447.047 57.7689 444.108 58.983 440.712 58.983C437.317 58.983 434.226 57.7183 431.794 55.189C429.311 52.6597 428.095 49.6246 428.095 46.033C428.095 42.4414 429.311 39.6592 431.743 37.2311C434.175 34.8029 437.064 33.5889 440.51 33.5889V33.6395Z" fill="black"/>
<path d="M469.445 65.7109H489.258V103.246C489.258 110.53 489.765 115.639 490.778 118.472C491.792 121.305 493.413 123.531 495.643 125.099C497.873 126.667 500.609 127.476 503.852 127.476C507.095 127.476 509.882 126.718 512.163 125.149C514.443 123.581 516.115 121.305 517.23 118.32C518.041 116.094 518.446 111.289 518.446 103.903V65.7109H538.057V98.7435C538.057 112.351 536.993 121.659 534.814 126.667C532.179 132.788 528.328 137.492 523.21 140.73C518.092 144.018 511.605 145.637 503.7 145.637C495.136 145.637 488.194 143.714 482.924 139.92C477.654 136.076 473.904 130.764 471.776 123.935C470.255 119.231 469.495 110.631 469.495 98.1365V65.7109H469.445Z" fill="black"/>
<path d="M605.454 76.6374L593.343 88.7275C588.427 83.8712 583.968 81.4431 579.914 81.4431C577.735 81.4431 576.012 81.8984 574.745 82.8595C573.478 83.77 572.87 84.9335 572.87 86.3499C572.87 87.4122 573.276 88.3734 574.036 89.2333C574.847 90.0933 576.772 91.3073 579.863 92.8249L587.059 96.4165C594.609 100.16 599.829 103.954 602.616 107.798C605.403 111.643 606.873 116.196 606.873 121.406C606.873 128.336 604.339 134.103 599.221 138.757C594.103 143.411 587.312 145.687 578.748 145.687C567.347 145.687 558.276 141.236 551.486 132.383L563.546 119.281C565.827 121.962 568.512 124.138 571.603 125.756C574.695 127.426 577.431 128.235 579.813 128.235C582.397 128.235 584.475 127.628 586.046 126.363C587.616 125.099 588.427 123.682 588.427 122.064C588.427 119.079 585.589 116.094 579.863 113.262L573.276 109.974C560.658 103.6 554.324 95.6577 554.324 86.097C554.324 79.9255 556.705 74.6646 561.469 70.3142C566.232 65.9638 572.313 63.738 579.711 63.738C584.779 63.738 589.542 64.8509 594.052 67.0767C598.511 69.3025 602.312 72.4894 605.403 76.6374H605.454Z" fill="black"/>
<path d="M628.257 36.978H647.868V65.7108H659.472V82.5559H647.868V143.664H628.257V82.5559H618.224V65.7108H628.257V36.978Z" fill="black"/>
<path d="M706.599 63.738C713.947 63.738 720.889 65.5591 727.376 69.2519C733.862 72.9447 738.929 77.9021 742.578 84.2253C746.226 90.5485 748.051 97.3271 748.051 104.662C748.051 111.997 746.226 118.877 742.578 125.301C738.929 131.725 733.913 136.683 727.629 140.325C721.295 143.917 714.353 145.738 706.751 145.738C695.552 145.738 686.026 141.741 678.07 133.799C670.165 125.857 666.212 116.196 666.212 104.814C666.212 92.6226 670.671 82.5054 679.641 74.3611C687.495 67.279 696.515 63.738 706.701 63.738H706.599ZM706.903 82.1513C700.823 82.1513 695.755 84.2759 691.701 88.4745C687.647 92.6732 685.62 98.0858 685.62 104.713C685.62 111.339 687.597 117.005 691.6 121.204C695.603 125.402 700.671 127.527 706.802 127.527C712.934 127.527 718.052 125.402 722.106 121.153C726.16 116.904 728.237 111.441 728.237 104.763C728.237 98.0858 726.21 92.6226 722.258 88.4745C718.254 84.2759 713.136 82.2019 706.903 82.2019V82.1513Z" fill="black"/>
<path d="M172.186 129.826L116.122 17.3791C108.391 1.87213 89.5303 -4.44208 73.9963 3.27588L70.4578 5.03398C54.9238 12.7519 48.5986 31.5795 56.33 47.0864L112.394 159.533C120.125 175.04 138.985 181.355 154.519 173.637L158.058 171.879C173.592 164.161 179.917 145.333 172.186 129.826Z" fill="#A13BFF"/>
<path d="M2.28032 130.663C3.80054 126.717 5.97953 123.328 8.86795 120.445C11.7564 117.561 15.2529 115.285 19.3575 113.616C23.4621 111.946 28.2254 111.137 33.6982 111.137C44.3398 111.137 52.5997 114.172 58.5285 120.242C64.4574 126.313 67.3965 133.85 67.3965 142.955C67.3965 148.115 66.6364 152.82 65.1162 157.018C63.5959 161.268 61.417 164.809 58.5285 167.692C55.6401 170.575 52.1436 172.852 48.039 174.521C43.9344 176.19 39.171 177 33.6982 177C23.0567 177 14.7968 173.965 8.91862 167.894C2.98976 161.824 0.0506592 153.68 0.0506592 143.36C0.0506592 138.807 0.81077 134.558 2.33099 130.663H2.28032Z" fill="#A13BFF"/>
</g>
<defs>
<clipPath id="clip0_2009_379">
<rect width="748" height="177" fill="white"/>
</clipPath>
</defs>
</svg>
